<mxfile host="app.diagrams.net" modified="2023-04-26T04:55:26.520Z" agent="Mozilla/5.0 (X11; Linux x86_64) AppleWebKit/537.36 (KHTML, like Gecko) Chrome/111.0.0.0 Safari/537.36" version="21.2.2" etag="rbrcvlmK2W111T_6BqA6" type="github">
  <diagram name="Страница 1" id="zed-xs-cCm35cVkJeUY5">
    <mxGraphModel>
      <root>
        <mxCell id="0" />
        <mxCell id="1" parent="0" />
      </root>
    </mxGraphModel>
  </diagram>
</mxfile>
